<svg xmlns="http://www.w3.org/2000/svg" xmlns:xlink="http://www.w3.org/1999/xlink" version="1.1" width="252" height="187"><defs/><g transform=" scale(0.5) translate(-620,-470)"><path d="M 680 760 L 680 820 L 840 820" fill="none" stroke="#000000" stroke-width="4" stroke-miterlimit="10" pointer-events="none"/><path d="M 1120 520 L 1120 820 L 960 820" fill="none" stroke="#000000" stroke-width="4" stroke-miterlimit="10" pointer-events="none"/><path d="M 1000 520 L 800 520" fill="none" stroke="#000000" stroke-width="4" stroke-miterlimit="10" pointer-events="none"/><path d="M 680 660 L 680 520" fill="none" stroke="#000000" stroke-width="4" stroke-miterlimit="10" pointer-events="none"/><rect x="678" y="658" width="4" height="4" fill="#000000" stroke="none" pointer-events="none"/><rect x="678" y="758" width="4" height="4" fill="#000000" stroke="none" pointer-events="none"/><rect x="678" y="658" width="4" height="4" fill="#000000" stroke="none" pointer-events="none"/><rect x="678" y="758" width="4" height="4" fill="#000000" stroke="none" pointer-events="none"/><path d="M 644 703.07 C 716 703.07 716 703.07 716 703.07" fill="none" stroke="#000000" stroke-width="4" stroke-linecap="round" stroke-miterlimit="10" pointer-events="none"/><path d="M 662 718 C 698 718 698 718 698 718" fill="none" stroke="#000000" stroke-width="4" stroke-linecap="round" stroke-miterlimit="10" pointer-events="none"/><path d="M 680 662 L 680 702" fill="none" stroke="#000000" stroke-width="4" stroke-linejoin="round" stroke-linecap="square" stroke-miterlimit="10" pointer-events="none"/><path d="M 680 718 L 680 758" fill="none" stroke="#000000" stroke-width="4" stroke-linejoin="round" stroke-linecap="square" stroke-miterlimit="10" pointer-events="none"/><path d="M 644 682 C 664 682 664 682 664 682" fill="none" stroke="#000000" stroke-width="3" stroke-linecap="round" stroke-miterlimit="10" pointer-events="none"/><path d="M 654 672 C 654 692 654 692 654 692" fill="none" stroke="#000000" stroke-width="3" stroke-linecap="round" stroke-miterlimit="10" pointer-events="none"/><path d="M 644 703.07 C 716 703.07 716 703.07 716 703.07" fill="none" stroke="#000000" stroke-width="4" stroke-linecap="round" stroke-miterlimit="10" pointer-events="none"/><path d="M 662 718 C 698 718 698 718 698 718" fill="none" stroke="#000000" stroke-width="4" stroke-linecap="round" stroke-miterlimit="10" pointer-events="none"/><path d="M 680 662 L 680 702" fill="none" stroke="#000000" stroke-width="4" stroke-linecap="square" stroke-miterlimit="10" pointer-events="none"/><path d="M 680 718 L 680 758" fill="none" stroke="#000000" stroke-width="4" stroke-linecap="square" stroke-miterlimit="10" pointer-events="none"/><path d="M 644 682 C 664 682 664 682 664 682" fill="none" stroke="#000000" stroke-width="3" stroke-linecap="round" stroke-miterlimit="10" pointer-events="none"/><path d="M 654 672 C 654 692 654 692 654 692" fill="none" stroke="#000000" stroke-width="3" stroke-linecap="round" stroke-miterlimit="10" pointer-events="none"/><rect x="624" y="660" width="16" height="26" fill-opacity="0" fill="#dae2f2" stroke="none" pointer-events="none"/><g fill="#000000" font-family="Arial,Helvetica" font-weight="bold" text-anchor="middle" font-size="24px"><text x="632" y="681">U</text></g><rect x="738" y="458" width="4" height="4" fill="#000000" stroke="none" transform="rotate(90,740,520)" pointer-events="none"/><rect x="738" y="578" width="4" height="4" fill="#000000" stroke="none" transform="rotate(90,740,520)" pointer-events="none"/><path d="M 740 484 L 754 490 L 740 496" fill="none" stroke="#000000" stroke-width="4" stroke-linejoin="round" stroke-linecap="round" stroke-miterlimit="10" transform="rotate(90,740,520)" pointer-events="none"/><path d="M 740 496 L 726 502 L 740 508" fill="none" stroke="#000000" stroke-width="4" stroke-linejoin="round" stroke-linecap="round" stroke-miterlimit="10" transform="rotate(90,740,520)" pointer-events="none"/><path d="M 740 508 L 754 514 L 740 520" fill="none" stroke="#000000" stroke-width="4" stroke-linejoin="round" stroke-linecap="round" stroke-miterlimit="10" transform="rotate(90,740,520)" pointer-events="none"/><path d="M 740 520 L 726 526 L 740 532" fill="none" stroke="#000000" stroke-width="4" stroke-linejoin="round" stroke-linecap="round" stroke-miterlimit="10" transform="rotate(90,740,520)" pointer-events="none"/><path d="M 740 532 L 754 538 L 740 544" fill="none" stroke="#000000" stroke-width="4" stroke-linejoin="round" stroke-linecap="round" stroke-miterlimit="10" transform="rotate(90,740,520)" pointer-events="none"/><path d="M 740 544 L 726 550 L 740 556" fill="none" stroke="#000000" stroke-width="4" stroke-linejoin="round" stroke-linecap="round" stroke-miterlimit="10" transform="rotate(90,740,520)" pointer-events="none"/><path d="M 740 462 L 740 482" fill="#000000" stroke="#000000" stroke-width="4" stroke-linecap="square" stroke-miterlimit="10" transform="rotate(90,740,520)" pointer-events="none"/><path d="M 740 558 L 740 578" fill="#000000" stroke="#000000" stroke-width="4" stroke-linecap="square" stroke-miterlimit="10" transform="rotate(90,740,520)" pointer-events="none"/><rect x="718" y="474" width="82" height="26" fill-opacity="0" fill="#dae2f2" stroke="none" pointer-events="none"/><g fill="#000000" font-family="Arial,Helvetica" font-weight="bold" text-anchor="middle" font-size="24px"><text x="759" y="495">R123AB</text></g><rect x="898" y="758" width="4" height="4" fill="#000000" stroke="none" transform="rotate(90,900,820)" pointer-events="none"/><rect x="898" y="878" width="4" height="4" fill="#000000" stroke="none" transform="rotate(90,900,820)" pointer-events="none"/><path d="M 900 784 L 914 790 L 900 796" fill="none" stroke="#000000" stroke-width="4" stroke-linejoin="round" stroke-linecap="round" stroke-miterlimit="10" transform="rotate(90,900,820)" pointer-events="none"/><path d="M 900 796 L 886 802 L 900 808" fill="none" stroke="#000000" stroke-width="4" stroke-linejoin="round" stroke-linecap="round" stroke-miterlimit="10" transform="rotate(90,900,820)" pointer-events="none"/><path d="M 900 808 L 914 814 L 900 820" fill="none" stroke="#000000" stroke-width="4" stroke-linejoin="round" stroke-linecap="round" stroke-miterlimit="10" transform="rotate(90,900,820)" pointer-events="none"/><path d="M 900 820 L 886 826 L 900 832" fill="none" stroke="#000000" stroke-width="4" stroke-linejoin="round" stroke-linecap="round" stroke-miterlimit="10" transform="rotate(90,900,820)" pointer-events="none"/><path d="M 900 832 L 914 838 L 900 844" fill="none" stroke="#000000" stroke-width="4" stroke-linejoin="round" stroke-linecap="round" stroke-miterlimit="10" transform="rotate(90,900,820)" pointer-events="none"/><path d="M 900 844 L 886 850 L 900 856" fill="none" stroke="#000000" stroke-width="4" stroke-linejoin="round" stroke-linecap="round" stroke-miterlimit="10" transform="rotate(90,900,820)" pointer-events="none"/><path d="M 900 762 L 900 782" fill="#000000" stroke="#000000" stroke-width="4" stroke-linecap="square" stroke-miterlimit="10" transform="rotate(90,900,820)" pointer-events="none"/><path d="M 900 858 L 900 878" fill="#000000" stroke="#000000" stroke-width="4" stroke-linecap="square" stroke-miterlimit="10" transform="rotate(90,900,820)" pointer-events="none"/><rect x="920" y="774" width="40" height="26" fill-opacity="0" fill="#dae2f2" stroke="none" pointer-events="none"/><g fill="#000000" font-family="Arial,Helvetica" font-weight="bold" text-anchor="middle" font-size="24px"><text x="940" y="795">R78</text></g><rect x="1058" y="458" width="4" height="4" fill="#000000" stroke="none" transform="rotate(90,1060,520)" pointer-events="none"/><rect x="1058" y="578" width="4" height="4" fill="#000000" stroke="none" transform="rotate(90,1060,520)" pointer-events="none"/><path d="M 1060 484 L 1074 490 L 1060 496" fill="none" stroke="#000000" stroke-width="4" stroke-linejoin="round" stroke-linecap="round" stroke-miterlimit="10" transform="rotate(90,1060,520)" pointer-events="none"/><path d="M 1060 496 L 1046 502 L 1060 508" fill="none" stroke="#000000" stroke-width="4" stroke-linejoin="round" stroke-linecap="round" stroke-miterlimit="10" transform="rotate(90,1060,520)" pointer-events="none"/><path d="M 1060 508 L 1074 514 L 1060 520" fill="none" stroke="#000000" stroke-width="4" stroke-linejoin="round" stroke-linecap="round" stroke-miterlimit="10" transform="rotate(90,1060,520)" pointer-events="none"/><path d="M 1060 520 L 1046 526 L 1060 532" fill="none" stroke="#000000" stroke-width="4" stroke-linejoin="round" stroke-linecap="round" stroke-miterlimit="10" transform="rotate(90,1060,520)" pointer-events="none"/><path d="M 1060 532 L 1074 538 L 1060 544" fill="none" stroke="#000000" stroke-width="4" stroke-linejoin="round" stroke-linecap="round" stroke-miterlimit="10" transform="rotate(90,1060,520)" pointer-events="none"/><path d="M 1060 544 L 1046 550 L 1060 556" fill="none" stroke="#000000" stroke-width="4" stroke-linejoin="round" stroke-linecap="round" stroke-miterlimit="10" transform="rotate(90,1060,520)" pointer-events="none"/><path d="M 1060 462 L 1060 482" fill="#000000" stroke="#000000" stroke-width="4" stroke-linecap="square" stroke-miterlimit="10" transform="rotate(90,1060,520)" pointer-events="none"/><path d="M 1060 558 L 1060 578" fill="#000000" stroke="#000000" stroke-width="4" stroke-linecap="square" stroke-miterlimit="10" transform="rotate(90,1060,520)" pointer-events="none"/><rect x="1088" y="474" width="32" height="26" fill-opacity="0" fill="#dae2f2" stroke="none" pointer-events="none"/><g fill="#000000" font-family="Arial,Helvetica" font-weight="bold" text-anchor="middle" font-size="24px"><text x="1104" y="495">RC</text></g></g></svg>