<svg xmlns="http://www.w3.org/2000/svg" xmlns:xlink="http://www.w3.org/1999/xlink" version="1.1" width="152.00000000000006" height="147"><defs/><g transform=" scale(0.5) translate(-620,-490)"><path d="M 680 600 L 680 540 L 740 540" fill="none" stroke="#000000" stroke-width="4" stroke-miterlimit="10" pointer-events="none"/><path d="M 860 540 L 920 540 L 920 780 L 680 780 L 680 700" fill="none" stroke="#000000" stroke-width="4" stroke-miterlimit="10" pointer-events="none"/><rect x="678" y="598" width="4" height="4" fill="#000000" stroke="none" pointer-events="none"/><rect x="678" y="698" width="4" height="4" fill="#000000" stroke="none" pointer-events="none"/><rect x="678" y="598" width="4" height="4" fill="#000000" stroke="none" pointer-events="none"/><rect x="678" y="698" width="4" height="4" fill="#000000" stroke="none" pointer-events="none"/><path d="M 644 643.07 C 716 643.07 716 643.07 716 643.07" fill="none" stroke="#000000" stroke-width="4" stroke-linecap="round" stroke-miterlimit="10" pointer-events="none"/><path d="M 662 658 C 698 658 698 658 698 658" fill="none" stroke="#000000" stroke-width="4" stroke-linecap="round" stroke-miterlimit="10" pointer-events="none"/><path d="M 680 602 L 680 642" fill="none" stroke="#000000" stroke-width="4" stroke-linejoin="round" stroke-linecap="square" stroke-miterlimit="10" pointer-events="none"/><path d="M 680 658 L 680 698" fill="none" stroke="#000000" stroke-width="4" stroke-linejoin="round" stroke-linecap="square" stroke-miterlimit="10" pointer-events="none"/><path d="M 644 622 C 664 622 664 622 664 622" fill="none" stroke="#000000" stroke-width="3" stroke-linecap="round" stroke-miterlimit="10" pointer-events="none"/><path d="M 654 612 C 654 632 654 632 654 632" fill="none" stroke="#000000" stroke-width="3" stroke-linecap="round" stroke-miterlimit="10" pointer-events="none"/><path d="M 644 643.07 C 716 643.07 716 643.07 716 643.07" fill="none" stroke="#000000" stroke-width="4" stroke-linecap="round" stroke-miterlimit="10" pointer-events="none"/><path d="M 662 658 C 698 658 698 658 698 658" fill="none" stroke="#000000" stroke-width="4" stroke-linecap="round" stroke-miterlimit="10" pointer-events="none"/><path d="M 680 602 L 680 642" fill="none" stroke="#000000" stroke-width="4" stroke-linecap="square" stroke-miterlimit="10" pointer-events="none"/><path d="M 680 658 L 680 698" fill="none" stroke="#000000" stroke-width="4" stroke-linecap="square" stroke-miterlimit="10" pointer-events="none"/><path d="M 644 622 C 664 622 664 622 664 622" fill="none" stroke="#000000" stroke-width="3" stroke-linecap="round" stroke-miterlimit="10" pointer-events="none"/><path d="M 654 612 C 654 632 654 632 654 632" fill="none" stroke="#000000" stroke-width="3" stroke-linecap="round" stroke-miterlimit="10" pointer-events="none"/><rect x="624" y="600" width="16" height="26" fill-opacity="0" fill="#dae2f2" stroke="none" pointer-events="none"/><g fill="#000000" font-family="Arial,Helvetica" font-weight="bold" text-anchor="middle" font-size="24px"><text x="632" y="621">U</text></g><rect x="798" y="478" width="4" height="4" fill="#000000" stroke="none" transform="rotate(90,800,540)" pointer-events="none"/><rect x="798" y="598" width="4" height="4" fill="#000000" stroke="none" transform="rotate(90,800,540)" pointer-events="none"/><path d="M 800 504 L 814 510 L 800 516" fill="none" stroke="#000000" stroke-width="4" stroke-linejoin="round" stroke-linecap="round" stroke-miterlimit="10" transform="rotate(90,800,540)" pointer-events="none"/><path d="M 800 516 L 786 522 L 800 528" fill="none" stroke="#000000" stroke-width="4" stroke-linejoin="round" stroke-linecap="round" stroke-miterlimit="10" transform="rotate(90,800,540)" pointer-events="none"/><path d="M 800 528 L 814 534 L 800 540" fill="none" stroke="#000000" stroke-width="4" stroke-linejoin="round" stroke-linecap="round" stroke-miterlimit="10" transform="rotate(90,800,540)" pointer-events="none"/><path d="M 800 540 L 786 546 L 800 552" fill="none" stroke="#000000" stroke-width="4" stroke-linejoin="round" stroke-linecap="round" stroke-miterlimit="10" transform="rotate(90,800,540)" pointer-events="none"/><path d="M 800 552 L 814 558 L 800 564" fill="none" stroke="#000000" stroke-width="4" stroke-linejoin="round" stroke-linecap="round" stroke-miterlimit="10" transform="rotate(90,800,540)" pointer-events="none"/><path d="M 800 564 L 786 570 L 800 576" fill="none" stroke="#000000" stroke-width="4" stroke-linejoin="round" stroke-linecap="round" stroke-miterlimit="10" transform="rotate(90,800,540)" pointer-events="none"/><path d="M 800 482 L 800 502" fill="#000000" stroke="#000000" stroke-width="4" stroke-linecap="square" stroke-miterlimit="10" transform="rotate(90,800,540)" pointer-events="none"/><path d="M 800 578 L 800 598" fill="#000000" stroke="#000000" stroke-width="4" stroke-linecap="square" stroke-miterlimit="10" transform="rotate(90,800,540)" pointer-events="none"/><rect x="800" y="494" width="60" height="26" fill-opacity="0" fill="#dae2f2" stroke="none" pointer-events="none"/><g fill="#000000" font-family="Arial,Helvetica" font-weight="bold" text-anchor="middle" font-size="24px"><text x="830" y="515">REKV</text></g></g></svg>