<svg xmlns="http://www.w3.org/2000/svg" xmlns:xlink="http://www.w3.org/1999/xlink" version="1.1" width="382" height="227"><defs/><g transform=" scale(0.5) translate(-620,-390)"><path d="M 680 660 L 680 520 L 780 520 L 780 440 L 800 440" fill="none" stroke="#000000" stroke-width="4" stroke-miterlimit="10" pointer-events="none"/><path d="M 780 524 L 780 600 L 800 600" fill="none" stroke="#000000" stroke-width="4" stroke-miterlimit="10" pointer-events="none"/><ellipse cx="780" cy="520" rx="4" ry="4" fill="#000000" stroke="#000000" stroke-width="4" pointer-events="none"/><path d="M 680 760 L 680 820 L 1000 820" fill="none" stroke="#000000" stroke-width="4" stroke-miterlimit="10" pointer-events="none"/><path d="M 920 440 L 1040 440" fill="none" stroke="#000000" stroke-width="4" stroke-miterlimit="10" pointer-events="none"/><path d="M 920 600 L 1040 600" fill="none" stroke="#000000" stroke-width="4" stroke-miterlimit="10" pointer-events="none"/><path d="M 1380 520 L 1380 820 L 1120 820" fill="none" stroke="#000000" stroke-width="4" stroke-miterlimit="10" pointer-events="none"/><path d="M 1160 440 L 1260 440 L 1260 520" fill="none" stroke="#000000" stroke-width="4" stroke-miterlimit="10" pointer-events="none"/><path d="M 1160 600 L 1260 600 L 1260 524" fill="none" stroke="#000000" stroke-width="4" stroke-miterlimit="10" pointer-events="none"/><ellipse cx="1260" cy="520" rx="4" ry="4" fill="#000000" stroke="#000000" stroke-width="4" pointer-events="none"/><rect x="678" y="658" width="4" height="4" fill="#000000" stroke="none" pointer-events="none"/><rect x="678" y="758" width="4" height="4" fill="#000000" stroke="none" pointer-events="none"/><rect x="678" y="658" width="4" height="4" fill="#000000" stroke="none" pointer-events="none"/><rect x="678" y="758" width="4" height="4" fill="#000000" stroke="none" pointer-events="none"/><path d="M 644 703.07 C 716 703.07 716 703.07 716 703.07" fill="none" stroke="#000000" stroke-width="4" stroke-linecap="round" stroke-miterlimit="10" pointer-events="none"/><path d="M 662 718 C 698 718 698 718 698 718" fill="none" stroke="#000000" stroke-width="4" stroke-linecap="round" stroke-miterlimit="10" pointer-events="none"/><path d="M 680 662 L 680 702" fill="none" stroke="#000000" stroke-width="4" stroke-linejoin="round" stroke-linecap="square" stroke-miterlimit="10" pointer-events="none"/><path d="M 680 718 L 680 758" fill="none" stroke="#000000" stroke-width="4" stroke-linejoin="round" stroke-linecap="square" stroke-miterlimit="10" pointer-events="none"/><path d="M 644 682 C 664 682 664 682 664 682" fill="none" stroke="#000000" stroke-width="3" stroke-linecap="round" stroke-miterlimit="10" pointer-events="none"/><path d="M 654 672 C 654 692 654 692 654 692" fill="none" stroke="#000000" stroke-width="3" stroke-linecap="round" stroke-miterlimit="10" pointer-events="none"/><path d="M 644 703.07 C 716 703.07 716 703.07 716 703.07" fill="none" stroke="#000000" stroke-width="4" stroke-linecap="round" stroke-miterlimit="10" pointer-events="none"/><path d="M 662 718 C 698 718 698 718 698 718" fill="none" stroke="#000000" stroke-width="4" stroke-linecap="round" stroke-miterlimit="10" pointer-events="none"/><path d="M 680 662 L 680 702" fill="none" stroke="#000000" stroke-width="4" stroke-linecap="square" stroke-miterlimit="10" pointer-events="none"/><path d="M 680 718 L 680 758" fill="none" stroke="#000000" stroke-width="4" stroke-linecap="square" stroke-miterlimit="10" pointer-events="none"/><path d="M 644 682 C 664 682 664 682 664 682" fill="none" stroke="#000000" stroke-width="3" stroke-linecap="round" stroke-miterlimit="10" pointer-events="none"/><path d="M 654 672 C 654 692 654 692 654 692" fill="none" stroke="#000000" stroke-width="3" stroke-linecap="round" stroke-miterlimit="10" pointer-events="none"/><rect x="624" y="660" width="16" height="26" fill-opacity="0" fill="#dae2f2" stroke="none" pointer-events="none"/><g fill="#000000" font-family="Arial,Helvetica" font-weight="bold" text-anchor="middle" font-size="24px"><text x="632" y="681">U</text></g><rect x="858" y="378" width="4" height="4" fill="#000000" stroke="none" transform="rotate(90,860,440)" pointer-events="none"/><rect x="858" y="498" width="4" height="4" fill="#000000" stroke="none" transform="rotate(90,860,440)" pointer-events="none"/><path d="M 860 404 L 874 410 L 860 416" fill="none" stroke="#000000" stroke-width="4" stroke-linejoin="round" stroke-linecap="round" stroke-miterlimit="10" transform="rotate(90,860,440)" pointer-events="none"/><path d="M 860 416 L 846 422 L 860 428" fill="none" stroke="#000000" stroke-width="4" stroke-linejoin="round" stroke-linecap="round" stroke-miterlimit="10" transform="rotate(90,860,440)" pointer-events="none"/><path d="M 860 428 L 874 434 L 860 440" fill="none" stroke="#000000" stroke-width="4" stroke-linejoin="round" stroke-linecap="round" stroke-miterlimit="10" transform="rotate(90,860,440)" pointer-events="none"/><path d="M 860 440 L 846 446 L 860 452" fill="none" stroke="#000000" stroke-width="4" stroke-linejoin="round" stroke-linecap="round" stroke-miterlimit="10" transform="rotate(90,860,440)" pointer-events="none"/><path d="M 860 452 L 874 458 L 860 464" fill="none" stroke="#000000" stroke-width="4" stroke-linejoin="round" stroke-linecap="round" stroke-miterlimit="10" transform="rotate(90,860,440)" pointer-events="none"/><path d="M 860 464 L 846 470 L 860 476" fill="none" stroke="#000000" stroke-width="4" stroke-linejoin="round" stroke-linecap="round" stroke-miterlimit="10" transform="rotate(90,860,440)" pointer-events="none"/><path d="M 860 382 L 860 402" fill="#000000" stroke="#000000" stroke-width="4" stroke-linecap="square" stroke-miterlimit="10" transform="rotate(90,860,440)" pointer-events="none"/><path d="M 860 478 L 860 498" fill="#000000" stroke="#000000" stroke-width="4" stroke-linecap="square" stroke-miterlimit="10" transform="rotate(90,860,440)" pointer-events="none"/><rect x="880" y="394" width="40" height="26" fill-opacity="0" fill="#dae2f2" stroke="none" pointer-events="none"/><g fill="#000000" font-family="Arial,Helvetica" font-weight="bold" text-anchor="middle" font-size="24px"><text x="900" y="415">R12</text></g><rect x="1098" y="378" width="4" height="4" fill="#000000" stroke="none" transform="rotate(90,1100,440)" pointer-events="none"/><rect x="1098" y="498" width="4" height="4" fill="#000000" stroke="none" transform="rotate(90,1100,440)" pointer-events="none"/><path d="M 1100 404 L 1114 410 L 1100 416" fill="none" stroke="#000000" stroke-width="4" stroke-linejoin="round" stroke-linecap="round" stroke-miterlimit="10" transform="rotate(90,1100,440)" pointer-events="none"/><path d="M 1100 416 L 1086 422 L 1100 428" fill="none" stroke="#000000" stroke-width="4" stroke-linejoin="round" stroke-linecap="round" stroke-miterlimit="10" transform="rotate(90,1100,440)" pointer-events="none"/><path d="M 1100 428 L 1114 434 L 1100 440" fill="none" stroke="#000000" stroke-width="4" stroke-linejoin="round" stroke-linecap="round" stroke-miterlimit="10" transform="rotate(90,1100,440)" pointer-events="none"/><path d="M 1100 440 L 1086 446 L 1100 452" fill="none" stroke="#000000" stroke-width="4" stroke-linejoin="round" stroke-linecap="round" stroke-miterlimit="10" transform="rotate(90,1100,440)" pointer-events="none"/><path d="M 1100 452 L 1114 458 L 1100 464" fill="none" stroke="#000000" stroke-width="4" stroke-linejoin="round" stroke-linecap="round" stroke-miterlimit="10" transform="rotate(90,1100,440)" pointer-events="none"/><path d="M 1100 464 L 1086 470 L 1100 476" fill="none" stroke="#000000" stroke-width="4" stroke-linejoin="round" stroke-linecap="round" stroke-miterlimit="10" transform="rotate(90,1100,440)" pointer-events="none"/><path d="M 1100 382 L 1100 402" fill="#000000" stroke="#000000" stroke-width="4" stroke-linecap="square" stroke-miterlimit="10" transform="rotate(90,1100,440)" pointer-events="none"/><path d="M 1100 478 L 1100 498" fill="#000000" stroke="#000000" stroke-width="4" stroke-linecap="square" stroke-miterlimit="10" transform="rotate(90,1100,440)" pointer-events="none"/><rect x="1130" y="394" width="30" height="26" fill-opacity="0" fill="#dae2f2" stroke="none" pointer-events="none"/><g fill="#000000" font-family="Arial,Helvetica" font-weight="bold" text-anchor="middle" font-size="24px"><text x="1145" y="415">RA</text></g><rect x="1098" y="538" width="4" height="4" fill="#000000" stroke="none" transform="rotate(90,1100,600)" pointer-events="none"/><rect x="1098" y="658" width="4" height="4" fill="#000000" stroke="none" transform="rotate(90,1100,600)" pointer-events="none"/><path d="M 1100 564 L 1114 570 L 1100 576" fill="none" stroke="#000000" stroke-width="4" stroke-linejoin="round" stroke-linecap="round" stroke-miterlimit="10" transform="rotate(90,1100,600)" pointer-events="none"/><path d="M 1100 576 L 1086 582 L 1100 588" fill="none" stroke="#000000" stroke-width="4" stroke-linejoin="round" stroke-linecap="round" stroke-miterlimit="10" transform="rotate(90,1100,600)" pointer-events="none"/><path d="M 1100 588 L 1114 594 L 1100 600" fill="none" stroke="#000000" stroke-width="4" stroke-linejoin="round" stroke-linecap="round" stroke-miterlimit="10" transform="rotate(90,1100,600)" pointer-events="none"/><path d="M 1100 600 L 1086 606 L 1100 612" fill="none" stroke="#000000" stroke-width="4" stroke-linejoin="round" stroke-linecap="round" stroke-miterlimit="10" transform="rotate(90,1100,600)" pointer-events="none"/><path d="M 1100 612 L 1114 618 L 1100 624" fill="none" stroke="#000000" stroke-width="4" stroke-linejoin="round" stroke-linecap="round" stroke-miterlimit="10" transform="rotate(90,1100,600)" pointer-events="none"/><path d="M 1100 624 L 1086 630 L 1100 636" fill="none" stroke="#000000" stroke-width="4" stroke-linejoin="round" stroke-linecap="round" stroke-miterlimit="10" transform="rotate(90,1100,600)" pointer-events="none"/><path d="M 1100 542 L 1100 562" fill="#000000" stroke="#000000" stroke-width="4" stroke-linecap="square" stroke-miterlimit="10" transform="rotate(90,1100,600)" pointer-events="none"/><path d="M 1100 638 L 1100 658" fill="#000000" stroke="#000000" stroke-width="4" stroke-linecap="square" stroke-miterlimit="10" transform="rotate(90,1100,600)" pointer-events="none"/><rect x="1130" y="554" width="30" height="26" fill-opacity="0" fill="#dae2f2" stroke="none" pointer-events="none"/><g fill="#000000" font-family="Arial,Helvetica" font-weight="bold" text-anchor="middle" font-size="24px"><text x="1145" y="575">RB</text></g><rect x="858" y="538" width="4" height="4" fill="#000000" stroke="none" transform="rotate(90,860,600)" pointer-events="none"/><rect x="858" y="658" width="4" height="4" fill="#000000" stroke="none" transform="rotate(90,860,600)" pointer-events="none"/><path d="M 860 564 L 874 570 L 860 576" fill="none" stroke="#000000" stroke-width="4" stroke-linejoin="round" stroke-linecap="round" stroke-miterlimit="10" transform="rotate(90,860,600)" pointer-events="none"/><path d="M 860 576 L 846 582 L 860 588" fill="none" stroke="#000000" stroke-width="4" stroke-linejoin="round" stroke-linecap="round" stroke-miterlimit="10" transform="rotate(90,860,600)" pointer-events="none"/><path d="M 860 588 L 874 594 L 860 600" fill="none" stroke="#000000" stroke-width="4" stroke-linejoin="round" stroke-linecap="round" stroke-miterlimit="10" transform="rotate(90,860,600)" pointer-events="none"/><path d="M 860 600 L 846 606 L 860 612" fill="none" stroke="#000000" stroke-width="4" stroke-linejoin="round" stroke-linecap="round" stroke-miterlimit="10" transform="rotate(90,860,600)" pointer-events="none"/><path d="M 860 612 L 874 618 L 860 624" fill="none" stroke="#000000" stroke-width="4" stroke-linejoin="round" stroke-linecap="round" stroke-miterlimit="10" transform="rotate(90,860,600)" pointer-events="none"/><path d="M 860 624 L 846 630 L 860 636" fill="none" stroke="#000000" stroke-width="4" stroke-linejoin="round" stroke-linecap="round" stroke-miterlimit="10" transform="rotate(90,860,600)" pointer-events="none"/><path d="M 860 542 L 860 562" fill="#000000" stroke="#000000" stroke-width="4" stroke-linecap="square" stroke-miterlimit="10" transform="rotate(90,860,600)" pointer-events="none"/><path d="M 860 638 L 860 658" fill="#000000" stroke="#000000" stroke-width="4" stroke-linecap="square" stroke-miterlimit="10" transform="rotate(90,860,600)" pointer-events="none"/><rect x="892" y="554" width="28" height="26" fill-opacity="0" fill="#dae2f2" stroke="none" pointer-events="none"/><g fill="#000000" font-family="Arial,Helvetica" font-weight="bold" text-anchor="middle" font-size="24px"><text x="906" y="575">R3</text></g><rect x="1058" y="758" width="4" height="4" fill="#000000" stroke="none" transform="rotate(90,1060,820)" pointer-events="none"/><rect x="1058" y="878" width="4" height="4" fill="#000000" stroke="none" transform="rotate(90,1060,820)" pointer-events="none"/><path d="M 1060 784 L 1074 790 L 1060 796" fill="none" stroke="#000000" stroke-width="4" stroke-linejoin="round" stroke-linecap="round" stroke-miterlimit="10" transform="rotate(90,1060,820)" pointer-events="none"/><path d="M 1060 796 L 1046 802 L 1060 808" fill="none" stroke="#000000" stroke-width="4" stroke-linejoin="round" stroke-linecap="round" stroke-miterlimit="10" transform="rotate(90,1060,820)" pointer-events="none"/><path d="M 1060 808 L 1074 814 L 1060 820" fill="none" stroke="#000000" stroke-width="4" stroke-linejoin="round" stroke-linecap="round" stroke-miterlimit="10" transform="rotate(90,1060,820)" pointer-events="none"/><path d="M 1060 820 L 1046 826 L 1060 832" fill="none" stroke="#000000" stroke-width="4" stroke-linejoin="round" stroke-linecap="round" stroke-miterlimit="10" transform="rotate(90,1060,820)" pointer-events="none"/><path d="M 1060 832 L 1074 838 L 1060 844" fill="none" stroke="#000000" stroke-width="4" stroke-linejoin="round" stroke-linecap="round" stroke-miterlimit="10" transform="rotate(90,1060,820)" pointer-events="none"/><path d="M 1060 844 L 1046 850 L 1060 856" fill="none" stroke="#000000" stroke-width="4" stroke-linejoin="round" stroke-linecap="round" stroke-miterlimit="10" transform="rotate(90,1060,820)" pointer-events="none"/><path d="M 1060 762 L 1060 782" fill="#000000" stroke="#000000" stroke-width="4" stroke-linecap="square" stroke-miterlimit="10" transform="rotate(90,1060,820)" pointer-events="none"/><path d="M 1060 858 L 1060 878" fill="#000000" stroke="#000000" stroke-width="4" stroke-linecap="square" stroke-miterlimit="10" transform="rotate(90,1060,820)" pointer-events="none"/><rect x="1080" y="774" width="40" height="26" fill-opacity="0" fill="#dae2f2" stroke="none" pointer-events="none"/><g fill="#000000" font-family="Arial,Helvetica" font-weight="bold" text-anchor="middle" font-size="24px"><text x="1100" y="795">R78</text></g><rect x="1318" y="458" width="4" height="4" fill="#000000" stroke="none" transform="rotate(90,1320,520)" pointer-events="none"/><rect x="1318" y="578" width="4" height="4" fill="#000000" stroke="none" transform="rotate(90,1320,520)" pointer-events="none"/><path d="M 1320 484 L 1334 490 L 1320 496" fill="none" stroke="#000000" stroke-width="4" stroke-linejoin="round" stroke-linecap="round" stroke-miterlimit="10" transform="rotate(90,1320,520)" pointer-events="none"/><path d="M 1320 496 L 1306 502 L 1320 508" fill="none" stroke="#000000" stroke-width="4" stroke-linejoin="round" stroke-linecap="round" stroke-miterlimit="10" transform="rotate(90,1320,520)" pointer-events="none"/><path d="M 1320 508 L 1334 514 L 1320 520" fill="none" stroke="#000000" stroke-width="4" stroke-linejoin="round" stroke-linecap="round" stroke-miterlimit="10" transform="rotate(90,1320,520)" pointer-events="none"/><path d="M 1320 520 L 1306 526 L 1320 532" fill="none" stroke="#000000" stroke-width="4" stroke-linejoin="round" stroke-linecap="round" stroke-miterlimit="10" transform="rotate(90,1320,520)" pointer-events="none"/><path d="M 1320 532 L 1334 538 L 1320 544" fill="none" stroke="#000000" stroke-width="4" stroke-linejoin="round" stroke-linecap="round" stroke-miterlimit="10" transform="rotate(90,1320,520)" pointer-events="none"/><path d="M 1320 544 L 1306 550 L 1320 556" fill="none" stroke="#000000" stroke-width="4" stroke-linejoin="round" stroke-linecap="round" stroke-miterlimit="10" transform="rotate(90,1320,520)" pointer-events="none"/><path d="M 1320 462 L 1320 482" fill="#000000" stroke="#000000" stroke-width="4" stroke-linecap="square" stroke-miterlimit="10" transform="rotate(90,1320,520)" pointer-events="none"/><path d="M 1320 558 L 1320 578" fill="#000000" stroke="#000000" stroke-width="4" stroke-linecap="square" stroke-miterlimit="10" transform="rotate(90,1320,520)" pointer-events="none"/><rect x="1348" y="474" width="32" height="26" fill-opacity="0" fill="#dae2f2" stroke="none" pointer-events="none"/><g fill="#000000" font-family="Arial,Helvetica" font-weight="bold" text-anchor="middle" font-size="24px"><text x="1364" y="495">RC</text></g></g></svg>